<svg xmlns="http://www.w3.org/2000/svg" xmlns:xlink="http://www.w3.org/1999/xlink" version="1.1" x="0px" y="0px" viewBox="0 0 100 125" enable-background="new 0 0 100 100" xml:space="preserve"><path d="M25.736,46.818C25.617,47.785,25.5,49.008,25.5,50c0,1.023,0.082,2.029,0.204,3.024c0,0-0.003,0,0.003,0.052l0,0  c1.204,9.321,7.637,17.303,16.767,20.247c0.051,0.017,0.103,0.024,0.153,0.024c0.211,0,0.408-0.135,0.476-0.347  c0.084-0.263-0.06-0.544-0.323-0.629C33.988,69.535,27.818,61.925,26.7,52.936c-0.029-0.641,0.256-1.128,0.52-1.424  c0.498-0.558,1.25-0.891,2.013-0.891c1.548,0,2.353,1.389,2.559,2.582l0,0c1.051,5.951,4.972,11.12,10.596,13.664  c0.067,0.029,0.137,0.044,0.206,0.044c0.19,0,0.373-0.109,0.456-0.294c0.114-0.252,0.002-0.548-0.25-0.662  C36.543,63.127,32.5,56.863,32.5,50c0-8.726,6.427-15.96,14.793-17.269c0.432-0.02,0.802,0.177,1.044,0.374  c0.623,0.507,1.042,1.402,1.042,2.228c0,1.733-1.56,2.346-2.489,2.557l0,0C41.498,39.277,37.5,44.182,37.5,50  c0,5.176,3.215,9.719,7.836,11.587l-0.003,0.009C46.623,62.053,48,63.059,48,64.516V76.92c0,0.004-0.003,0.007-0.003,0.011  c0,0.007,0.003,0.013,0.003,0.02V77c0,0.751-0.367,1.503-0.935,1.916c-0.303,0.22-0.705,0.319-1.419,0.263l0,0  c-13.052-1.915-23.33-12.284-24.934-25.618c-0.033-0.274-0.287-0.475-0.556-0.437c-0.274,0.032-0.47,0.281-0.437,0.556  c1.653,13.744,12.22,24.439,25.654,26.467l0,0C46.679,80.486,48,81.594,48,83.054v11.921h0.003c0,0.268,0.209,0.49,0.479,0.5  C49.051,95.494,49.518,95.5,50,95.5c25.089,0,45.5-20.411,45.5-45.5c0-23.983-18.655-43.677-42.214-45.368l-0.369-0.026  C53.13,4.62,53.13,4.62,53.13,4.62C52.094,4.549,51.053,4.5,50,4.5c-0.99,0-2.025,0.037-3,0.1c-0.019,0,0.019,0,0,0v0.01  C23.306,6.161,4.5,25.92,4.5,50c0,22.46,16.095,41.226,37.909,44.859l-0.002,0.009c0.042,0.008,0.084,0.006,0.127,0.012  c0.962,0.158,1.932,0.297,2.915,0.394c0.27,0.035,0.52-0.172,0.547-0.447c0.002-0.017-0.005-0.033-0.005-0.05h0.007l0-3.243  c0-0.005,0.002-0.01,0.002-0.014c0-0.005-0.002-0.011-0.002-0.016l0-5.952c0-0.006,0.002-0.012,0.002-0.018  c0-0.006-0.002-0.012-0.002-0.019l0-2.819h-0.009c-0.001-0.246-0.173-0.461-0.424-0.495c-0.993-0.135-1.971-0.316-2.932-0.539  c-0.003-0.001-0.005-0.002-0.008-0.003l0,0.001C29.05,78.504,18.892,66.825,17.633,52.917c0.045-1.34,1.142-2.417,2.492-2.417  c1.315,0,2.375,1.051,2.561,2.56l0,0c1.219,11.081,8.97,20.276,19.664,23.344l-0.005,0.014c0.074,0.024,0.149,0.037,0.223,0.054  c0.931,0.259,1.876,0.485,2.848,0.648c0.028,0.005,0.056,0.007,0.083,0.007c0.24,0,0.452-0.173,0.493-0.417  c0.005-0.029-0.003-0.055-0.003-0.083H46l0-3.314c0-0.001,0-0.002,0-0.003s0-0.002,0-0.003l0-6.728c0,0,0-0.001,0-0.001  c0-0.001,0-0.001,0-0.002l0-2.284h-0.007c0-0.212-0.129-0.409-0.341-0.477c-0.6-0.192-1.174-0.428-1.734-0.688  c-0.222-0.121-0.466-0.242-0.731-0.362C38.505,60.268,35.5,55.422,35.5,50c0-6.684,4.524-12.472,11.003-14.076  c0.268-0.066,0.432-0.337,0.365-0.605c-0.066-0.269-0.34-0.432-0.605-0.365C39.337,36.668,34.5,42.856,34.5,50  c0,5.785,3.198,10.956,8.185,13.63l-0.001,0.002c0.012,0.005,0.02,0.01,0.032,0.015c0.244,0.13,0.494,0.253,0.747,0.371  C44.737,64.72,45,65.376,45,66.575v0.003c0,0.81-0.513,1.756-1.219,2.249c-0.3,0.21-0.756,0.417-1.245,0.261  c-6.569-2.592-11.528-8.532-12.74-15.599c-0.046-0.271-0.301-0.454-0.577-0.408c-0.272,0.047-0.455,0.306-0.408,0.578  C30.078,61.055,35.261,67.273,42.129,70l-0.005,0.011c1.393,0.561,2.873,1.906,2.875,3.295v0.006  c-0.001,0.75-0.368,1.501-0.935,1.913c-0.285,0.207-0.741,0.399-1.304,0.26C31.449,72.305,23.5,62.017,23.5,50  c0-13.611,10.316-24.852,23.538-26.33c0.758-0.054,1.296,0.27,1.614,0.559c0.531,0.484,0.848,1.217,0.848,1.962  c0,1.395-0.995,2.385-2.6,2.552l0,0c-8.999,1.305-16.355,8.183-18.043,17.334c-0.05,0.271,0.129,0.532,0.401,0.583  c0.275,0.053,0.533-0.13,0.583-0.401C31.631,36.548,40.109,29.5,50,29.5c10.378,0,18.959,7.759,20.298,17.777  c0.022,0.552-0.22,0.992-0.456,1.268C69.34,49.134,68.538,49.5,67.75,49.5c-1.793,0-2.404-1.82-2.577-2.604l0,0  c-1.161-5.668-5.424-10.343-11.172-11.874c-0.27-0.075-0.541,0.088-0.612,0.354c-0.071,0.267,0.088,0.541,0.354,0.612  C60.077,37.675,64.5,43.438,64.5,50c0,6.263-3.99,11.795-9.93,13.766c-0.263,0.087-0.404,0.37-0.317,0.632  c0.069,0.21,0.265,0.343,0.475,0.343c0.052,0,0.105-0.008,0.157-0.025c5.303-1.76,9.142-6.178,10.267-11.486l0.01,0.002  c0.179-0.784,0.788-2.61,2.588-2.61c0.751,0,1.499,0.339,2.002,0.907c0.376,0.424,0.554,0.929,0.522,1.43  c-1.187,8.298-7.283,15.092-15.656,17.019c-0.269,0.062-0.437,0.33-0.375,0.6c0.054,0.231,0.259,0.388,0.487,0.388  c0.037,0,0.074-0.004,0.112-0.013c8.756-2.016,15.139-9.104,16.41-17.772l0.014-0.106c0.004-0.036-0.003,0.036,0,0  c0.12-0.845,0.192-1.703,0.212-2.574l0,0l-0.004-1l0,0c-0.018-0.785-0.081-1.558-0.182-2.32c-0.005-0.087,0.014,0.087,0,0  l-0.039-0.255C69.9,37.536,62.478,30.08,53.09,28.721l0,0c-1.195-0.218-2.59-1.011-2.59-2.53c0-0.705,0.331-1.423,0.885-1.922  c0.442-0.399,0.974-0.596,1.502-0.591c11.723,1.307,21.497,10.44,23.308,22.284c0.042,0.273,0.305,0.46,0.569,0.418  c0.273-0.042,0.461-0.297,0.419-0.57c-1.871-12.232-11.921-21.701-24.009-23.129l0,0c-0.034-0.004-0.068,0.003-0.102,0  C52.06,22.566,51.036,22.5,50,22.5c-1.031,0-2.047,0.062-3.048,0.173c-0.016,0.001-0.032-0.002-0.049-0.001l0.001,0.007  c-12.692,1.429-22.799,11.528-24.231,24.22l0,0c-0.154,1.507-1.225,2.601-2.548,2.601c-0.727,0-1.423-0.302-1.91-0.827  c-0.398-0.429-0.598-0.965-0.588-1.519c1.326-15.335,13.265-27.767,28.81-29.461c0.274-0.03,0.473-0.277,0.443-0.551  c-0.03-0.274-0.275-0.472-0.551-0.443c-15.99,1.743-28.279,14.505-29.691,30.265l-0.012-0.001c-0.003,0.041,0.005,0.08,0.004,0.12  C16.547,48.045,16.5,49.017,16.5,50c0,0.986,0.047,1.963,0.132,2.93c0,0.024-0.007,0.046-0.007,0.07h0.012  c1.294,14.329,11.754,26.365,25.737,29.627l0,0c1.3,0.338,2.614,1.438,2.624,2.89v0.035c-0.005,0.742-0.291,1.408-0.789,1.828  c-0.424,0.358-0.963,0.496-1.559,0.41c-16.551-3.222-29.428-17.277-30.987-34.217c-0.025-0.275-0.265-0.473-0.544-0.452  c-0.275,0.025-0.478,0.269-0.452,0.544c1.598,17.358,14.778,31.763,31.728,35.093l-0.002,0.009c1.251,0.272,2.595,1.245,2.604,2.739  v0.028c-0.004,0.74-0.346,1.483-0.895,1.938c-0.301,0.248-0.791,0.511-1.433,0.418C21.287,90.375,5.5,71.999,5.5,50  c0-23.552,18.394-42.878,41.57-44.393C48.415,5.645,49.5,6.746,49.5,8.1c0,1.395-1.042,2.429-2.534,2.515l0,0.009  c-18.996,1.429-34.34,16.158-36.268,35.39c-0.027,0.275,0.173,0.52,0.448,0.547c0.282,0.025,0.52-0.173,0.547-0.448  C13.672,26.38,30.14,11.5,50,11.5c20.279,0,36.935,15.764,38.386,35.68c0.006,0.528-0.192,1.044-0.583,1.467  c-0.495,0.535-1.225,0.854-1.953,0.854c-1.476,0-2.368-1.281-2.486-2.547l-0.003,0c-1.413-15.631-13.589-28.372-29.428-30.225  c-0.271-0.033-0.522,0.164-0.555,0.438c-0.031,0.274,0.165,0.522,0.439,0.555C70.169,19.635,82.5,33.511,82.5,50  c0,16-11.917,29.822-27.721,32.15c-0.272,0.041-0.462,0.295-0.422,0.568c0.037,0.248,0.251,0.427,0.494,0.427  c0.024,0,0.049-0.002,0.074-0.005c15.3-2.255,27.065-14.961,28.438-30.162c0.076-1.31,1.156-2.357,2.486-2.357  c0.74,0,1.475,0.321,1.967,0.859c0.39,0.426,0.58,0.952,0.561,1.49c-1.391,18.156-15.405,33.06-33.696,35.254  c-0.274,0.032-0.47,0.281-0.437,0.556c0.03,0.254,0.246,0.44,0.495,0.44c0.021,0,0.04-0.001,0.061-0.004  c18.728-2.246,33.087-17.478,34.566-36.052l0.009,0.001c0.003-0.037-0.004-0.073-0.002-0.11C89.451,52.046,89.5,51.028,89.5,50  c0-0.976-0.048-1.941-0.118-2.899c-0.001-0.042-0.022-0.122-0.009-0.123l0,0c-1.468-19.292-16.846-34.76-36.106-36.345l0,0  c-1.438-0.113-2.524-1.202-2.524-2.533c0-0.72,0.314-1.438,0.84-1.918c0.418-0.382,0.928-0.574,1.461-0.566  C76.165,7.187,94.5,26.486,94.5,50c0,24.034-19.156,43.667-43,44.462V94.46c-1.472,0-2.5-0.913-2.5-2.221V80.376  c0-1.375,1.455-2.577,2.864-2.946c12.924-0.879,23.68-10.807,25.398-23.79c0.036-0.273-0.157-0.524-0.431-0.562  c-0.273-0.034-0.525,0.156-0.562,0.431C74.61,66.055,64.19,75.642,51.687,76.44C50.384,76.415,49,75.535,49,74.12V56  c0-0.276-0.224-0.5-0.5-0.5S48,55.724,48,56c0,1.792-1.458,3.25-3.25,3.25S41.5,57.792,41.5,56c0-1.515,1.028-2.815,2.5-3.163  c0.269-0.063,0.436-0.332,0.372-0.602c-0.064-0.268-0.335-0.438-0.602-0.371c-0.1,0.024-0.192,0.064-0.289,0.095l0,0  C43.082,52.128,42.44,52.25,42,52.25c-1.792,0-3.25-1.458-3.25-3.25s1.458-3.25,3.25-3.25c0.584,0,1.26,0.218,1.759,0.514l0,0  c0,0-0.023-0.015,0,0c0.084,0.055,0.424,0.181,0.6,0.142c0.179-0.04,0.289-0.095,0.385-0.242c0.151-0.231,0.086-0.541-0.145-0.692  c-0.923-0.604-1.474-1.621-1.474-2.722c0-1.792,1.458-3.25,3.25-3.25s3.25,1.458,3.25,3.25c0,0.174-0.014,0.344-0.04,0.511  c-0.043,0.273,0.143,0.529,0.416,0.572c0.07,0.012,0.139,0.007,0.204-0.01c0.015-0.001,0.028,0.004,0.042,0.002  c0.273-0.043,0.459-0.299,0.417-0.572c-0.026-0.164-0.039-0.332-0.039-0.503c0-1.792,1.458-3.25,3.25-3.25s3.25,1.458,3.25,3.25  c0,1.136-0.578,2.16-1.541,2.759c-0.015,0.011-0.032,0.018-0.047,0.029c-0.025,0.018-0.039,0.043-0.06,0.064  c-0.177,0.156-0.232,0.415-0.105,0.625c0.094,0.157,0.259,0.243,0.429,0.243c0.045,0,0.088-0.024,0.132-0.037  c0.003-0.001,0.006-0.002,0.009-0.003c0.039-0.012,0.08-0.01,0.116-0.032c0.041-0.024,0.076-0.055,0.116-0.08  c0.541-0.369,1.17-0.568,1.827-0.568c1.792,0,3.25,1.458,3.25,3.25s-1.458,3.25-3.25,3.25c-0.426,0-0.839-0.081-1.228-0.24  c-0.255-0.104-0.548,0.018-0.652,0.273s0.018,0.548,0.273,0.652c0.011,0.005,0.023,0.006,0.034,0.01  c0.029,0.021,0.054,0.046,0.088,0.06C57.721,53.516,58.5,54.691,58.5,56c0,1.792-1.458,3.25-3.25,3.25S52,57.792,52,56  c0-0.276-0.224-0.5-0.5-0.5S51,55.724,51,56v11.967c0,0.004-0.002,0.008-0.001,0.012c0,0.002,0.001,0.003,0.001,0.005v5.993  c0,0.002-0.001,0.005-0.001,0.007c0.017,0.266,0.236,0.47,0.499,0.47c0.01,0,0.021,0,0.03-0.001  c1.118-0.069,2.213-0.217,3.284-0.431c0.016-0.003,0.032-0.002,0.048-0.006l-0.001-0.003c10.21-2.057,18.062-10.46,19.425-20.806  l0.007,0.001c0.225-1.251,1.015-2.587,2.559-2.587c0.751,0,1.521,0.347,2.006,0.905c0.381,0.438,0.552,0.966,0.49,1.492  C77.989,66.402,67.709,77.191,54.41,79.173l0-0.003c-0.009,0.002-0.017,0.005-0.026,0.007c-0.954,0.141-1.924,0.237-2.908,0.286  c-0.276,0.014-0.489,0.248-0.475,0.523c0,0.005,0.003,0.008,0.003,0.013H51v11.973h0.003c0,0.006-0.003,0.012-0.003,0.019  c0.01,0.27,0.231,0.482,0.5,0.482c0.006,0,0.012,0,0.018,0c0.994-0.035,1.975-0.115,2.949-0.216c0.011,0,0.022,0.003,0.033,0.003  v-0.007c21.535-2.241,38-20.251,38-42.254c0-22.104-16.576-40.297-38.558-42.32c-0.271-0.028-0.519,0.177-0.544,0.452  c-0.025,0.275,0.178,0.519,0.452,0.544C75.314,10.65,91.5,28.416,91.5,50c0,21.472-16.058,39.05-37.066,41.255  C53.021,91.226,52,90.289,52,89c0-1.381,1.398-2.651,2.557-2.783l-0.001-0.009c16.668-2.101,30.098-15.656,31.768-32.585  c0.026-0.274-0.174-0.52-0.449-0.547c-0.271-0.014-0.519,0.174-0.547,0.449c-1.623,16.468-14.691,29.654-30.908,31.693  c-0.697,0.013-1.322-0.194-1.765-0.615C52.226,84.196,52,83.642,52,83c0-1.349,1.11-2.569,2.584-2.843  C68.3,78.1,78.902,66.986,80.332,53.189l0.003,0c0.001-0.011,0-0.021,0.001-0.032C80.442,52.119,80.5,51.066,80.5,50  c0-15.742-11.988-28.735-27.314-30.333l0-0.002c-1.511-0.199-2.565-1.245-2.565-2.545c0-1.339,1.061-2.427,2.385-2.488  c16.79,1.404,30.421,14.456,32.282,31.463c0.03,0.275,0.281,0.47,0.552,0.443c0.274-0.03,0.473-0.277,0.442-0.551  C84.37,28.509,70.269,15.087,53.019,13.63l0,0c-0.035,0,0,0,0,0C52.022,13.549,51.017,13.5,50,13.5  c-1.032,0-2.051,0.054-3.062,0.138c-0.031,0.001,0.031-0.002,0,0l0,0c-17.612,1.515-31.785,15.59-33.304,33.201l0,0  c-0.117,1.471-1.169,2.54-2.501,2.54c-0.693,0-1.375-0.304-1.871-0.833c-0.423-0.452-0.641-1.004-0.639-1.565  c1.482-20.034,17.542-36.596,37.794-38.328c0.275-0.023,0.479-0.266,0.456-0.541c-0.023-0.275-0.268-0.483-0.541-0.456  C25.632,9.426,9.207,26.325,7.635,46.789L7.62,46.788c-0.003,0.045,0.007,0.089,0.006,0.135C7.55,47.941,7.5,48.965,7.5,50  c0,1.023,0.046,2.036,0.118,3.042c0.002,0.04-0.006,0.08-0.003,0.12l0.011-0.001C9.04,72.366,23.227,88.367,42.412,91.824  c0.03,0.005,0.06,0.008,0.089,0.008c0.237,0,0.448-0.17,0.492-0.411c0.049-0.271-0.132-0.532-0.403-0.581  C23.817,87.457,9.946,71.773,8.615,52.968c-0.014-0.541,0.183-1.07,0.578-1.498c0.489-0.531,1.214-0.848,1.94-0.848  c1.378,0,2.5,1.122,2.5,2.5h0.003c1.37,15.815,13.041,29.254,28.76,32.586c0.035,0.007,0.07,0.011,0.104,0.011  c0.231,0,0.439-0.161,0.489-0.396c0.057-0.27-0.115-0.535-0.386-0.593C26.319,81.277,14.5,66.672,14.5,50  c0-18.563,14.324-33.834,32.498-35.364c0.578-0.011,1.136,0.197,1.575,0.609c0.511,0.48,0.805,1.164,0.805,1.875  c0,1.462-0.929,2.389-2.547,2.543l0.001,0.007c-13.911,1.45-25.292,12.331-27.087,26.446c-0.035,0.274,0.159,0.524,0.433,0.559  c0.279,0.036,0.524-0.159,0.559-0.433C22.603,31.567,35.183,20.5,50,20.5c15.256,0,27.844,11.641,29.349,26.507  c-0.004,1.375-1.123,2.493-2.499,2.493c-1.513,0-2.387-1.287-2.56-2.565l0,0c-1.322-10.697-9.453-19.351-20.333-21.118  c-0.267-0.042-0.53,0.14-0.573,0.414c-0.045,0.272,0.141,0.529,0.413,0.574C65.213,28.659,73.5,38.414,73.5,50  c0,11.386-8.023,20.956-18.933,23.033c-0.793,0.115-1.174-0.16-1.412-0.347c-0.672-0.528-0.912-1.487-0.912-2.377  c0-1.126,0.794-1.863,2.654-2.468l0,0c0.001,0,0.002,0,0.003-0.001l-0.004-0.013c6.598-1.823,11.828-7.244,13.23-14.108  c0.055-0.271-0.12-0.534-0.391-0.59c-0.267-0.056-0.534,0.119-0.59,0.391c-1.335,6.542-6.347,11.701-12.656,13.387  c-0.503,0.124-0.964-0.091-1.269-0.31C52.502,66.078,52,65.143,52,64.323c0-1.294,1.18-1.983,2.723-2.751l-0.002-0.004  C59.315,59.688,62.5,55.165,62.5,50c0-5.811-3.987-10.711-9.369-12.105l0,0c-1.145-0.309-2.509-1.004-2.509-2.562  c0-0.866,0.407-1.776,1.013-2.264c0.39-0.315,0.815-0.426,1.259-0.328l0,0c6.857,1.133,12.467,6.232,14.127,13.175  c0.063,0.268,0.329,0.433,0.603,0.37c0.269-0.064,0.435-0.334,0.37-0.603C65.997,37.332,58.599,31.5,50,31.5  c-0.959,0-1.894,0.096-2.814,0.237c-0.096,0.007-0.189,0.023-0.284,0.043l0,0c-7.679,1.303-13.77,7.335-15.122,14.997l0,0  c-0.258,1.257-1.062,2.601-2.547,2.601c-0.748,0-1.523-0.354-2.024-0.924c-0.339-0.386-0.51-0.833-0.514-1.28  c1.268-10.291,9.325-18.827,19.755-20.408c0.273-0.041,0.461-0.296,0.419-0.569c-0.041-0.273-0.295-0.464-0.569-0.419  C35.505,27.413,27.151,36.195,25.736,46.818 M83.492,49.5h-0.004c0-0.002,0-0.003,0-0.005C83.49,49.497,83.491,49.498,83.492,49.5z"/><text x="0" y="115" fill="#000000" font-size="5px" font-weight="bold" font-family="'Helvetica Neue', Helvetica, Arial-Unicode, Arial, Sans-serif">Created by emilegraphics</text><text x="0" y="120" fill="#000000" font-size="5px" font-weight="bold" font-family="'Helvetica Neue', Helvetica, Arial-Unicode, Arial, Sans-serif">from the Noun Project</text></svg>